<svg xmlns="http://www.w3.org/2000/svg" width="1em" height="1em" viewBox="0 0 24 24"><path fill="#d8d8d8" d="M10.758 15.192q.452.452 1.18.415.73-.038 1.077-.515L18.27 7.77l-7.361 5.216q-.496.334-.559 1.035-.062.701.409 1.172M5.1 19q-.28 0-.512-.141-.232-.142-.392-.386-.592-1.021-.894-2.159Q3 15.177 3 14q0-1.863.71-3.506t1.927-2.857Q6.852 6.42 8.494 5.71 10.137 5 12 5q1.858 0 3.485.698 1.627.698 2.852 1.901 1.225 1.203 1.938 2.817.713 1.615.72 3.472.005 1.24-.294 2.41-.3 1.167-.903 2.252-.14.244-.382.347-.241.103-.522.103z"/></svg>